<svg xmlns="http://www.w3.org/2000/svg" viewBox="0 0 490 498"><defs><style>.cls-1{fill:#fff;}</style></defs><title>gwens logo white</title><g id="Layer_4" data-name="Layer 4"><path class="cls-1" d="M330.5,58.5h-209c-2.87-.35-29.13-3-48,17-15.21,16.16-15.11,35.93-15,40-.43,116.83.43,208.35,1,261,.1,9.17.55,27.5,13,42,14,16.33,36.05,19.37,48,20h234c3.86.05,27.34-.06,45-19,14.6-15.66,15.83-34.1,16-39v-109c.35-2.71,2.82-24.76-14-42-17-17.4-39.34-15.3-42-15h-58v60h55q-.5,51.5-1,103l-234,3q-.5-131.51-1-263l208,1Q329.51,88.5,330.5,58.5Z"/></g><g id="Layer_2" data-name="Layer 2"><path class="cls-1" d="M307.18,214.5a62,62,0,1,0,3.89,60ZM255,270a22,22,0,1,1,22-22A22,22,0,0,1,255,270Z"/><path class="cls-1" d="M357,24a62,62,0,0,0-55.58,34.5l2.21,59.08A62,62,0,1,0,357,24Zm0,84a22,22,0,1,1,22-22A22,22,0,0,1,357,108Z"/></g></svg>